<svg width="28" height="28" viewBox="0 0 28 28" fill="none" xmlns="http://www.w3.org/2000/svg">
    <path d="M5.72051 25.7799L17.6205 14.5799L23.2205 20.1799M5.72051 25.7799H19.7205C22.0401 25.7799 23.9205 23.8995 23.9205 21.5799V14.5799M5.72051 25.7799C3.40091 25.7799 1.52051 23.8995 1.52051 21.5799V7.57989C1.52051 5.26029 3.40091 3.37989 5.72051 3.37989H14.8205M22.5205 10.1397L22.5205 6.17989M22.5205 6.17989L22.5205 2.22009M22.5205 6.17989L18.5607 6.17989M22.5205 6.17989L26.4803 6.17989M9.92051 9.67989C9.92051 10.8397 8.98031 11.7799 7.82051 11.7799C6.66071 11.7799 5.72051 10.8397 5.72051 9.67989C5.72051 8.52009 6.66071 7.57989 7.82051 7.57989C8.98031 7.57989 9.92051 8.52009 9.92051 9.67989Z" stroke="#388FF3" stroke-width="2" stroke-linecap="round" stroke-linejoin="round"/>
</svg>
